# xmcd
#
# Track frame offsets:
#	150
#	10940
#	20290
#	31855
#	44805
#	56017
#	70987
#	85457
#	97677
#	109470
#	119030
#	132205
#	143190
#	157187
#
# Disc length: 2254 seconds
#
# Revision: 1
# Processed by: cddbd v1.5PL3 Copyright (c) Steve Scherf et al.
# Submitted via: audiograbber 1.83.01
#
DISCID=c708cc0e
DTITLE=Sonny George - Sonny George's Country and Western Roundup V.1
DYEAR=1995
DGENRE=Country Rock
TTITLE0=Hillbilly Beat
TTITLE1=Dixie Doll
TTITLE2=King of Hillbilly Hill
TTITLE3=Big Iron
TTITLE4=Walk On Son
TTITLE5=Love Star
TTITLE6=Hillbilly Train
TTITLE7=Who's Been Playin My Guitar
TTITLE8=Look-A-Here
TTITLE9=Treadin' Water
TTITLE10=Lovesick Daddy
TTITLE11=The Rebel (Johnny Yuma)
TTITLE12=Big Trouble
TTITLE13=Gotta Travel On
EXTD=
EXTT0=
EXTT1=
EXTT2=
EXTT3=
EXTT4=
EXTT5=
EXTT6=
EXTT7=
EXTT8=
EXTT9=
EXTT10=
EXTT11=
EXTT12=
EXTT13=
PLAYORDER=
